<svg xmlns="http://www.w3.org/2000/svg" aria-hidden="true" style="position:absolute;width:0;height:0;overflow:hidden">
  <defs>

    <symbol id="icon-close" viewBox="0 0 32 32">
      <path
        d="M31.556 30.484l-1.072 1.072c-0.275 0.275-0.654 0.444-1.073 0.444s-0.798-0.17-1.073-0.444l-12.338-12.335-12.338 12.335c-0.275 0.275-0.654 0.444-1.073 0.444s-0.798-0.17-1.073-0.444l-1.072-1.072c-0.275-0.275-0.444-0.654-0.444-1.073s0.17-0.798 0.444-1.073l12.335-12.338-12.335-12.338c-0.275-0.275-0.444-0.654-0.444-1.073s0.17-0.798 0.444-1.073l1.072-1.072c0.592-0.592 1.554-0.592 2.146 0l12.338 12.335 12.338-12.335c0.592-0.592 1.554-0.592 2.146 0l1.072 1.072c0.592 0.592 0.592 1.554 0 2.146l-12.335 12.338 12.335 12.338c0.592 0.592 0.592 1.554 0 2.146z">
      </path>
    </symbol>
    <symbol id="icon-facebook" viewBox="0 0 32 32">
      <path
        d="M32 16.486c0-8.891-7.163-16.098-16-16.098s-16 7.206-16 16.096c0 8.037 5.851 14.696 13.501 15.904v-11.248h-4.064v-4.656h4.064v-3.546c0-4.034 2.387-6.262 6.043-6.262 1.75 0 3.581 0.314 3.581 0.314v3.962h-2.016c-1.989 0-2.608 1.242-2.608 2.515v3.019h4.437l-0.709 4.653h-3.728v11.248c7.648-1.206 13.499-7.866 13.499-15.901z">
      </path>
    </symbol>
    <symbol id="icon-icon-copyright" viewBox="0 0 32 32">
      <path
        d="M16 32c8.674 0 16-7.326 16-16s-7.326-16-16-16-16 7.326-16 16 7.326 16 16 16zM16 3.2c6.939 0 12.8 5.861 12.8 12.8s-5.861 12.8-12.8 12.8-12.8-5.861-12.8-12.8 5.861-12.8 12.8-12.8z">
      </path>
      <path
        d="M16 24c1.442 0 4.13-0.269 5.931-2.067l-2.262-2.266c-0.709 0.709-2.082 1.133-3.669 1.133-2.602 0-4.8-2.198-4.8-4.8s2.198-4.8 4.8-4.8c1.589 0 2.962 0.424 3.669 1.131l2.262-2.262c-1.8-1.8-4.49-2.069-5.931-2.069-4.411 0-8 3.589-8 8s3.589 8 8 8z">
      </path>
    </symbol>
    <symbol id="icon-down-arrow-alt" viewBox="0 0 32 32">
      <path d="M32 16l-3.373-3.373-10.241 10.241v-22.868h-4.771v22.868l-10.241-10.241-3.373 3.373 16 16 16-16z"></path>
    </symbol>
    <symbol id="icon-ex-ar" viewBox="0 0 32 32">
      <path
        d="M4.859 31.819c0.215 0.114 0.47 0.182 0.74 0.182 0.341 0 0.658-0.107 0.917-0.289l-0.005 0.003 20.798-14.399c0.418-0.293 0.689-0.772 0.689-1.315s-0.27-1.022-0.684-1.312l-0.005-0.003-20.798-14.399c-0.255-0.18-0.572-0.287-0.914-0.287-0.882 0-1.597 0.715-1.597 1.597 0 0.002 0 0.004 0 0.006v-0 28.797c0 0 0 0 0 0 0 0.612 0.344 1.144 0.849 1.413l0.009 0.004zM7.201 4.657l16.387 11.346-16.387 11.343z">
      </path>
    </symbol>
    <symbol id="icon-logo" viewBox="0 0 32 32">
      <path
        d="M17.864 0.015c0.477-0.051 1.032 0.050 1.492 0.179 1.042 0.295 1.888 0.928 2.39 1.833 0.522 0.925 0.621 2.007 0.278 3.003-0.438 1.226-1.376 1.845-2.544 2.411l0.013 3.581c0.835 0.239 1.649 0.507 2.41 0.918 1.674 0.92 2.914 2.455 3.427 4.293l0.012 0.050c0.161 0.558 0.253 1.199 0.253 1.861 0 1.388-0.407 2.682-1.107 3.768l0.017-0.027c-0.999 1.542-2.54 2.66-4.348 3.089l-0.048 0.010c-2.436 0.565-4.503-0.050-6.596-1.21q-1.387 1.385-2.741 2.797c0.403 0.887 0.537 1.818 0.27 2.759-0.262 0.921-0.955 1.71-1.84 2.178-0.587 0.311-1.283 0.493-2.022 0.493-0.424 0-0.835-0.060-1.223-0.172l0.031 0.008c-1.081-0.288-1.989-0.912-2.517-1.848-0.519-0.921-0.563-2.002-0.225-2.985 0.383-1.119 1.165-1.806 2.262-2.317 1.182-0.431 2.158-0.29 3.31 0.098 0.961-0.941 1.864-1.931 2.834-2.864-1.066-1.947-1.41-3.606-0.857-5.752-1.207-0.525-2.37-1.137-3.578-1.662-0.622 0.618-1.431 1.048-2.335 1.197l-0.025 0.003c-0.198 0.030-0.426 0.048-0.658 0.048-0.939 0-1.812-0.284-2.537-0.771l0.016 0.010c-0.865-0.576-1.469-1.483-1.633-2.536l-0.003-0.021c-0.149-0.994 0.133-2.093 0.815-2.879 0.706-0.809 1.8-1.298 2.905-1.405 0.122-0.012 0.264-0.019 0.407-0.019 0.983 0 1.89 0.329 2.615 0.884l-0.010-0.008c1.076 0.84 1.385 1.884 1.516 3.127 1.144 0.655 2.454 1.158 3.646 1.74 1.553-1.707 2.686-2.247 4.949-2.897l0.002-3.553c-0.444-0.159-0.828-0.354-1.182-0.588l0.020 0.013c-0.857-0.585-1.456-1.494-1.62-2.548l-0.003-0.021c-0.019-0.141-0.030-0.303-0.030-0.468 0-0.914 0.337-1.75 0.893-2.39l-0.004 0.004c0.746-0.873 1.745-1.271 2.904-1.414zM17.692 13.633c-2.648 0.202-4.617 2.373-4.385 4.839s2.575 4.284 5.22 4.054c2.623-0.232 4.554-2.388 4.324-4.833-0.23-2.446-2.536-4.259-5.159-4.060zM30.44 11.757c0.040-0.003 0.086-0.005 0.133-0.005 0.070 0 0.139 0.004 0.207 0.013l-0.008-0.001c0.348 0.048 0.691 0.204 0.883 0.489 0.204 0.302 0.232 0.704 0.259 1.054 0.139 1.733 0.036 3.535 0.035 5.273 0 1.42 0.169 3.348-0.114 4.713-0.088 0.431-0.394 0.636-0.761 0.868-0.139 0.017-0.285 0.033-0.426 0.027-0.322-0.014-0.609-0.154-0.815-0.371l-0-0c-0.201-0.22-0.196-0.665-0.214-0.943-0.128-1.992-0.018-4.049-0.017-6.049 0-1.135-0.166-3.31 0.090-4.324 0.091-0.363 0.442-0.552 0.749-0.746zM27.231 14.54c0.376 0.065 0.711 0.197 0.93 0.502 0.34 0.471 0.348 5.085 0.179 5.744-0.093 0.36-0.428 0.535-0.746 0.708-0.361-0.020-0.839-0.050-1.081-0.343-0.361-0.436-0.331-5.34-0.126-5.955 0.119-0.358 0.514-0.509 0.842-0.656z">
      </path>
    </symbol>
    <symbol id="icon-icon-lr-more" viewBox="0 0 32 32">
      <path d="M6.857 32l18.286-16-18.286-16z"></path>
    </symbol>
    <symbol id="icon-instagram" viewBox="0 0 32 32">
      <path
        d="M15.998 2.877c4.275 0 4.782 0.021 6.462 0.096 1.565 0.069 2.406 0.331 2.97 0.551 0.743 0.286 1.28 0.637 1.837 1.191 0.564 0.564 0.907 1.095 1.2 1.839 0.219 0.564 0.48 1.414 0.551 2.97 0.075 1.689 0.092 2.194 0.092 6.464s-0.018 4.783-0.094 6.464c-0.068 1.565-0.331 2.406-0.549 2.97-0.271 0.72-0.677 1.333-1.192 1.836l-0.001 0.001c-0.504 0.519-1.118 0.928-1.804 1.189l-0.034 0.011c-0.562 0.219-1.412 0.48-2.97 0.551-1.688 0.075-2.192 0.092-6.462 0.092s-4.783-0.018-6.464-0.094c-1.565-0.068-2.408-0.331-2.97-0.549-0.721-0.271-1.335-0.678-1.838-1.194l-0.001-0.001c-0.519-0.503-0.927-1.117-1.189-1.803l-0.011-0.034c-0.219-0.562-0.48-1.412-0.551-2.97-0.073-1.688-0.092-2.192-0.092-6.464 0-4.268 0.018-4.78 0.094-6.462 0.069-1.565 0.331-2.408 0.551-2.97 0.286-0.745 0.637-1.28 1.191-1.839 0.504-0.519 1.118-0.928 1.804-1.189l0.034-0.011c0.564-0.219 1.414-0.48 2.97-0.551 1.682-0.073 2.187-0.092 6.464-0.092zM15.996-0.002c-4.344 0-4.888 0.020-6.595 0.094-1.7 0.076-2.868 0.35-3.882 0.745-1.11 0.425-2.057 1.054-2.835 1.848l-0.001 0.001c-0.795 0.779-1.424 1.724-1.831 2.779l-0.018 0.053c-0.395 1.019-0.67 2.18-0.747 3.88-0.069 1.712-0.091 2.256-0.091 6.601s0.018 4.888 0.094 6.595c0.075 1.7 0.35 2.87 0.743 3.882 0.424 1.11 1.054 2.057 1.848 2.835l0.001 0.001c0.779 0.793 1.724 1.421 2.779 1.826l0.054 0.018c1.019 0.395 2.182 0.67 3.882 0.745 1.707 0.075 2.249 0.094 6.593 0.094s4.89-0.018 6.597-0.094c1.698-0.075 2.868-0.35 3.88-0.745 1.108-0.424 2.052-1.051 2.83-1.843l0.001-0.001c0.887-0.889 1.439-1.78 1.844-2.831 0.395-1.019 0.669-2.18 0.745-3.882 0.075-1.707 0.094-2.249 0.094-6.593s-0.020-4.888-0.094-6.595c-0.076-1.7-0.35-2.868-0.745-3.882-0.406-1.117-1.032-2.068-1.83-2.843l-0.002-0.002c-0.779-0.792-1.723-1.419-2.777-1.824l-0.054-0.018c-1.019-0.395-2.18-0.67-3.882-0.745-1.712-0.082-2.255-0.101-6.599-0.101z">
      </path>
      <path
        d="M15.998 7.779c-4.45 0.117-8.013 3.752-8.013 8.22s3.563 8.103 8.002 8.219l0.011 0c4.488-0.068 8.1-3.722 8.1-8.22s-3.612-8.152-8.093-8.22l-0.006-0zM15.998 21.329c-2.944 0-5.331-2.387-5.331-5.331s2.387-5.331 5.331-5.331v0c2.945 0 5.332 2.387 5.332 5.332s-2.387 5.332-5.332 5.332v0zM26.459 7.454c0.001 0.025 0.002 0.054 0.002 0.083 0 1.061-0.86 1.92-1.92 1.92s-1.92-0.86-1.92-1.92c0-0.029 0.001-0.058 0.002-0.087l-0 0.004c0.045-1.024 0.887-1.838 1.919-1.838s1.873 0.813 1.919 1.834l0 0.004z">
      </path>
    </symbol>
    <symbol id="icon-menu-alt-right" viewBox="0 0 32 32">
      <path d="M0 4h32v4h-32zM8 14h24v4h-24zM18 24h14v4h-14z"></path>
    </symbol>
    <symbol id="icon-youtube" viewBox="0 0 32 32">
      <path
        d="M31.338 8.33c-0.182-0.676-0.538-1.292-1.032-1.787s-1.11-0.853-1.785-1.036c-2.504-0.688-12.521-0.699-12.521-0.699s-10.015-0.011-12.521 0.646c-0.675 0.192-1.289 0.554-1.783 1.052s-0.853 1.114-1.040 1.791c-0.66 2.504-0.667 7.697-0.667 7.697s-0.006 5.219 0.649 7.697c0.368 1.37 1.447 2.453 2.819 2.822 2.529 0.688 12.519 0.699 12.519 0.699s10.017 0.011 12.521-0.644c0.676-0.183 1.292-0.54 1.787-1.034s0.853-1.11 1.038-1.785c0.662-2.502 0.667-7.694 0.667-7.694s0.032-5.22-0.651-7.724zM12.796 20.805l0.008-9.593 8.325 4.805-8.333 4.789z">
      </path>
    </symbol>

    <symbol id="icon-facebook" viewBox="0 0 32 32">
      <path
        d="M32 16.098c0-8.89-7.163-16.098-16-16.098s-16 7.208-16 16.098c0 8.035 5.851 14.694 13.501 15.902v-11.248h-4.064v-4.656h4.064v-3.544c0-4.035 2.387-6.264 6.043-6.264 1.75 0 3.581 0.315 3.581 0.315v3.962h-2.016c-1.989 0-2.608 1.24-2.608 2.512v3.021h4.437l-0.709 4.653h-3.728v11.25c7.648-1.208 13.499-7.867 13.499-15.902z">
      </path>
    </symbol>
    <symbol id="icon-Instagram" viewBox="0 0 32 32">
      <path
        d="M15.998 2.878c4.276 0 4.782 0.019 6.463 0.094 1.563 0.069 2.406 0.331 2.969 0.55 0.744 0.288 1.281 0.638 1.837 1.194 0.563 0.563 0.906 1.094 1.2 1.838 0.219 0.563 0.481 1.412 0.55 2.969 0.075 1.688 0.094 2.194 0.094 6.464s-0.019 4.782-0.094 6.464c-0.069 1.563-0.331 2.406-0.55 2.97-0.288 0.744-0.637 1.281-1.194 1.837-0.563 0.563-1.094 0.906-1.837 1.2-0.563 0.219-1.413 0.481-2.969 0.55-1.688 0.075-2.194 0.094-6.464 0.094s-4.782-0.019-6.464-0.094c-1.563-0.069-2.406-0.331-2.969-0.55-0.744-0.288-1.281-0.637-1.838-1.194-0.563-0.563-0.906-1.094-1.2-1.837-0.219-0.563-0.481-1.413-0.55-2.969-0.075-1.688-0.094-2.194-0.094-6.464s0.019-4.782 0.094-6.464c0.069-1.563 0.331-2.406 0.55-2.969 0.288-0.744 0.638-1.281 1.194-1.838 0.563-0.563 1.094-0.906 1.838-1.2 0.563-0.219 1.412-0.481 2.969-0.55 1.681-0.075 2.188-0.094 6.464-0.094h0.001zM15.998-0.004c-4.345 0-4.888 0.019-6.595 0.094-1.7 0.075-2.869 0.35-3.882 0.744-1.056 0.412-1.95 0.956-2.837 1.85-0.894 0.888-1.438 1.781-1.85 2.831-0.394 1.019-0.669 2.181-0.744 3.882-0.075 1.713-0.094 2.256-0.094 6.601s0.019 4.888 0.094 6.595c0.075 1.7 0.35 2.869 0.744 3.882 0.413 1.056 0.956 1.95 1.85 2.837 0.887 0.887 1.781 1.438 2.831 1.844 1.019 0.394 2.181 0.669 3.882 0.744 1.706 0.075 2.25 0.094 6.595 0.094s4.889-0.019 6.595-0.094c1.7-0.075 2.869-0.35 3.881-0.744 1.050-0.406 1.944-0.956 2.832-1.844s1.438-1.781 1.844-2.832c0.394-1.019 0.669-2.181 0.744-3.881 0.075-1.706 0.094-2.25 0.094-6.595s-0.019-4.888-0.094-6.595c-0.075-1.7-0.35-2.869-0.744-3.882-0.394-1.063-0.938-1.956-1.831-2.844-0.887-0.887-1.781-1.438-2.832-1.844-1.019-0.394-2.181-0.669-3.881-0.744-1.712-0.081-2.256-0.1-6.601-0.1l-0.001 0.001z">
      </path>
      <path
        d="M15.997 7.778c-4.538 0-8.22 3.682-8.22 8.22s3.682 8.22 8.22 8.22c4.539 0 8.22-3.682 8.22-8.22s-3.682-8.22-8.22-8.22zM15.997 21.331c-2.944 0-5.332-2.387-5.332-5.332s2.387-5.332 5.332-5.332c2.944 0 5.332 2.387 5.332 5.332s-2.387 5.332-5.332 5.332z">
      </path>
      <path
        d="M26.46 7.454c0 1.060-0.859 1.919-1.919 1.919s-1.919-0.859-1.919-1.919 0.859-1.919 1.919-1.919c1.060 0 1.919 0.859 1.919 1.919z">
      </path>
    </symbol>
    <symbol id="icon-logo-text" viewBox="0 0 110 32">
      <path
        d="M16.268 0.374c0.435-0.050 0.939 0.048 1.358 0.175 0.949 0.289 1.719 0.908 2.177 1.792 0.475 0.905 0.567 1.964 0.253 2.936-0.398 1.2-1.251 1.803-2.317 2.358l0.012 3.501c0.761 0.232 1.503 0.496 2.195 0.897 1.59 0.922 2.677 2.475 3.133 4.243 0.148 0.545 0.232 1.172 0.232 1.818 0 1.349-0.369 2.612-1.013 3.692l0.018-0.033c-0.891 1.499-2.309 2.606-4.006 3.029-2.218 0.554-4.099-0.047-6.007-1.181q-1.264 1.353-2.496 2.734c0.367 0.867 0.488 1.776 0.244 2.697-0.238 0.901-0.869 1.672-1.676 2.127-0.904 0.513-1.935 0.606-2.926 0.322-0.984-0.282-1.811-0.891-2.292-1.807-0.473-0.901-0.514-1.955-0.207-2.916 0.35-1.093 1.062-1.766 2.061-2.265 1.076-0.42 1.965-0.282 3.015 0.096 0.874-0.921 1.699-1.887 2.582-2.798-0.97-1.905-1.285-3.526-0.781-5.625-1.099-0.513-2.159-1.111-3.259-1.626-0.588 0.612-1.306 1.032-2.149 1.173-1.007 0.17-2.068-0.105-2.895-0.695-0.8-0.584-1.351-1.467-1.489-2.482l-0.002-0.019c-0.136-0.974 0.12-2.045 0.744-2.813 0.642-0.792 1.639-1.27 2.646-1.374 0.109-0.011 0.236-0.018 0.365-0.018 0.907 0 1.738 0.324 2.384 0.862l-0.006-0.005c0.98 0.819 1.261 1.839 1.381 3.055 1.043 0.639 2.237 1.132 3.322 1.703 1.414-1.672 2.446-2.198 4.507-2.833l0.002-3.475c-0.405-0.155-0.754-0.345-1.074-0.573l0.015 0.010c-0.793-0.591-1.338-1.476-1.476-2.49l-0.002-0.019c-0.018-0.137-0.028-0.296-0.028-0.457 0-0.885 0.305-1.699 0.816-2.342l-0.006 0.008c0.68-0.853 1.59-1.243 2.646-1.382zM20.812 17.656c-0.174-2.266-2.056-4.039-4.352-4.039-2.41 0-4.364 1.954-4.364 4.364 0 0.154 0.008 0.307 0.024 0.457l-0.002-0.019c0.229 2.216 2.085 3.929 4.343 3.929 2.41 0 4.364-1.954 4.364-4.364 0-0.116-0.005-0.231-0.013-0.344l0.001 0.015zM102.255 12.228q1.066 0 2.131 0.029l-0.004 3.754c0.547-0.425 1.143-0.742 1.836-0.845 0.158-0.025 0.34-0.039 0.525-0.039 0.8 0 1.538 0.267 2.13 0.717l-0.009-0.006c0.911 0.69 1.39 1.85 1.529 2.959 0.175 1.406-0.155 2.758-1.023 3.879-0.576 0.556-1.268 0.945-2.064 1.075-1.169 0.192-2.095-0.218-3.007-0.897l-0.004 0.82-2.039-0.003zM105.907 17.148c-0.633 0.211-1.073 0.513-1.382 1.123-0.344 0.676-0.368 1.512-0.099 2.218 0.204 0.54 0.587 1.007 1.121 1.248 0.387 0.175 0.753 0.18 1.169 0.155 0.661-0.25 1.106-0.571 1.405-1.232 0.148-0.331 0.234-0.718 0.234-1.124 0-0.396-0.082-0.774-0.23-1.116l0.007 0.018c-0.228-0.535-0.634-0.966-1.181-1.179-0.342-0.132-0.685-0.149-1.045-0.111zM41.219 12.206c1.251 3.853 2.85 7.6 4.070 11.464l-2.304 0.003c-0.269-0.825-0.53-1.759-0.942-2.521-0.269-0.115-0.588-0.077-0.876-0.073q-1.667 0.016-3.334-0.012c-0.349 0.851-0.63 1.728-0.906 2.605l-2.346-0.002c1.225-3.847 2.686-7.643 4.008-11.459 0.876 0.019 1.755-0.001 2.631-0.005zM39.906 15.055c-0.485 1.38-0.937 2.778-1.469 4.139h1.688l1.31-0.016c-0.184-0.52-1.254-3.893-1.53-4.122zM89.793 12.231l2.204 0.013c-0.031 2.655-0.007 5.315-0.007 7.972-0.001 1.096 0.11 2.294-0.012 3.376l-0.121 0.083h-2.065l-0.004-4.905c-1.651-0.047-3.314-0.005-4.966-0.003l0.001 4.909-2.216-0.004 0.008-11.438 2.208 0.005 0.001 4.677h4.973zM93.322 15.402c0.731 0.021 1.464 0.013 2.196 0.018-0.009 1.169-0.194 4.399 0.089 5.365 0.112 0.381 0.335 0.73 0.695 0.916 0.543 0.279 1.095 0.117 1.633-0.073 0.238-0.266 0.444-0.517 0.562-0.861 0.387-1.127 0.18-4.019 0.174-5.361 0.697 0.019 1.396 0.004 2.092 0-0.016 0.804-0.003 1.609-0.004 2.413l0.010 5.852q-1.026 0.016-2.053-0.015l-0.063-0.075c0.004-0.049 0.007-0.107 0.007-0.165 0-0.114-0.009-0.226-0.027-0.334l0.002 0.012c-0.642 0.278-1.212 0.699-1.942 0.715-0.846 0.017-1.765-0.247-2.372-0.854-0.461-0.461-0.742-1.080-0.886-1.709-0.311-1.352-0.128-4.347-0.114-5.843zM63.707 15.171c1.093-0.085 2.232-0.007 3.114 0.728 0.619 0.516 0.818 1.134 0.886 1.904l-1.974-0.002c-0.114-0.211-0.228-0.456-0.406-0.621-0.265-0.236-0.617-0.38-1.002-0.38-0.028 0-0.055 0.001-0.083 0.002l0.004-0c-0.299 0.016-0.681 0.135-0.868 0.388-0.113 0.154-0.175 0.313-0.132 0.504 0.225 1.013 2.798 0.888 3.619 1.423 0.521 0.342 0.922 0.955 1.038 1.565 0.024 0.125 0.038 0.27 0.038 0.417 0 0.513-0.168 0.988-0.453 1.37l0.004-0.006c-0.63 0.867-1.598 1.179-2.608 1.334-0.934 0.056-2.016-0.195-2.765-0.763-0.7-0.534-0.953-1.189-1.048-2.032q0.998 0.002 1.996-0.019c0.039 0.125 0.083 0.247 0.145 0.362 0.29 0.534 0.869 0.652 1.404 0.811 0.354-0.082 0.834-0.172 1.085-0.459 0.152-0.172 0.205-0.472 0.141-0.693-0.245-0.846-2.712-0.946-3.568-1.472-0.508-0.313-0.88-0.766-1.015-1.354-0.121-0.531-0.075-1.129 0.225-1.595 0.539-0.843 1.284-1.189 2.223-1.413zM76.996 15.168c0.621-0.050 1.23-0.047 1.837 0.117 0.699 0.19 1.442 0.58 1.796 1.243 0.17 0.318 0.3 0.889 0.186 1.242-0.568 0.122-1.259 0.039-1.841 0.033-0.086-0.289-0.158-0.511-0.394-0.71-0.245-0.206-0.563-0.331-0.911-0.331-0.054 0-0.107 0.003-0.16 0.009l0.006-0.001c-0.3 0.031-0.687 0.179-0.854 0.448-0.1 0.161-0.142 0.325-0.079 0.51 0.364 1.072 2.544 0.818 3.391 1.302 0.541 0.308 0.992 0.85 1.145 1.458 0.048 0.181 0.075 0.388 0.075 0.602 0 0.496-0.148 0.958-0.402 1.344l0.006-0.009c-0.561 0.838-1.454 1.153-2.396 1.336-0.925 0.114-1.995-0.083-2.767-0.616-0.794-0.547-1.033-1.232-1.211-2.129l1.98-0.016c0.12 0.303 0.23 0.539 0.487 0.749 0.342 0.28 0.746 0.407 1.187 0.349 0.342-0.046 0.678-0.203 0.883-0.489 0.134-0.187 0.2-0.415 0.136-0.643-0.248-0.88-2.434-0.826-3.301-1.294-0.586-0.316-1.050-0.841-1.236-1.485-0.054-0.173-0.084-0.372-0.084-0.578 0-0.379 0.104-0.734 0.286-1.037l-0.005 0.009c0.478-0.812 1.357-1.209 2.237-1.413zM52.626 13.13c0.657 0.023 1.319 0.009 1.977 0.012-0.002 0.142-0.002 0.31-0.002 0.478 0 0.615 0.012 1.227 0.036 1.836l-0.003-0.087h1.951l-0.004 1.701-1.858-0.001c0.001 1.070-0.243 3.83 0.249 4.656 0.383 0.301 1.148 0.189 1.614 0.183l-0.006 1.409c0.004 0.145 0.003 0.22-0.070 0.346-0.259 0.124-0.526 0.152-0.813 0.155-0.754 0.006-1.796-0.131-2.339-0.696-1.090-1.134-0.742-4.472-0.736-6.055l-1.258 0.002 0.003-1.705 1.253 0.009zM69.581 13.122l1.941 0.010c-0.014 0.744 0.016 1.491 0.030 2.234l1.98-0.004v1.709l-1.866-0.002c0.023 1.018-0.226 3.863 0.235 4.633 0.496 0.296 1.116 0.218 1.674 0.215-0.006 0.491 0.003 0.983 0.005 1.474l-0.023 0.186c-0.193 0.203-0.488 0.195-0.75 0.201-0.797 0.019-1.897-0.107-2.475-0.712-1.079-1.129-0.743-4.42-0.733-5.999l-1.328 0.001c-0.017-0.566-0.010-1.132-0.014-1.699l1.323 0.007zM27.724 11.851c0.033-0.002 0.071-0.004 0.109-0.004 0.068 0 0.135 0.004 0.201 0.013l-0.008-0.001c0.317 0.046 0.63 0.199 0.804 0.476 0.186 0.296 0.211 0.69 0.236 1.032 0.126 1.694 0.032 3.456 0.031 5.156 0 1.388 0.155 3.271-0.104 4.607-0.081 0.42-0.359 0.621-0.694 0.849-0.126 0.015-0.259 0.032-0.387 0.025-0.298-0.013-0.561-0.151-0.741-0.361l-0.001-0.001c-0.183-0.215-0.178-0.65-0.195-0.922-0.116-1.947-0.018-3.958-0.016-5.913 0-1.11-0.152-3.235 0.082-4.227 0.083-0.355 0.403-0.541 0.683-0.729zM50.22 15.338l0.28-0.003c0.329 0.37 0.166 1.54 0.155 2.025-0.699-0.007-1.359-0.035-1.906 0.472-1.026 0.952-0.68 4.44-0.691 5.84-0.55-0.006-1.622 0.196-2.042-0.155l-0.022-0.346c0.010-2.594-0.055-5.187-0.038-7.78 0.666 0.021 1.334 0.006 2 0.003l-0.023 1.145c0.124-0.177 0.246-0.368 0.389-0.529 0.505-0.57 1.19-0.621 1.897-0.672zM57.798 15.374h2.092l0.005 8.303-2.117-0.003zM24.8 14.572c0.343 0.062 0.647 0.192 0.847 0.49 0.309 0.461 0.317 4.971 0.163 5.615-0.085 0.352-0.389 0.523-0.678 0.694-0.33-0.021-0.764-0.050-0.985-0.337-0.329-0.427-0.301-5.22-0.114-5.822 0.108-0.349 0.466-0.497 0.766-0.642zM58.706 11.953c0.049-0.007 0.106-0.012 0.164-0.012 0.639 0 1.158 0.518 1.158 1.158 0 0.602-0.46 1.097-1.047 1.153l-0.005 0c-0.031 0.003-0.067 0.005-0.103 0.005-0.639 0-1.158-0.518-1.158-1.158 0-0.581 0.428-1.062 0.986-1.145l0.006-0.001z">
      </path>
    </symbol>
    <symbol id="error-icon" viewBox="0 0 32 32">
<path d="M15.617 0.19c-8.506 0-15.427 6.953-15.427 15.5s6.953 15.5 15.5 15.5c8.547 0 15.5-6.953 15.5-15.5s-6.986-15.5-15.573-15.5zM15.69 28.090c-6.837 0-12.4-5.563-12.4-12.4s5.529-12.4 12.327-12.4c6.879 0 12.473 5.563 12.473 12.4s-5.563 12.4-12.4 12.4z"></path>
<path d="M14.14 7.94h3.1v10.85h-3.1v-10.85zM14.14 20.34h3.1v3.1h-3.1v-3.1z"></path>
</symbol>
  </defs>
</svg>