<svg xmlns="http://www.w3.org/2000/svg" width="107" height="31" fill="none" viewBox="0 0 107 31"><path fill="#fff" d="M15.709.013c.42-.048.907.046 1.311.169.916.279 1.66.877 2.102 1.73.459.874.547 1.896.244 2.835-.384 1.159-1.208 1.741-2.237 2.277l.012 3.38c.735.224 1.451.479 2.119.866 1.535.89 2.585 2.39 3.025 4.097a6.98 6.98 0 0 1-.736 5.288c-.86 1.447-2.229 2.516-3.868 2.925-2.142.535-3.958-.045-5.8-1.14q-1.22 1.306-2.41 2.64c.354.837.471 1.715.236 2.604-.23.87-.839 1.614-1.618 2.054-.873.495-1.868.585-2.825.311-.95-.272-1.749-.86-2.213-1.745-.457-.87-.496-1.888-.2-2.816.338-1.055 1.025-1.705 1.99-2.187 1.039-.406 1.897-.272 2.911.093.844-.889 1.64-1.822 2.493-2.702-.937-1.839-1.241-3.405-.754-5.431-1.061-.495-2.085-1.073-3.147-1.57-.568.591-1.261.996-2.075 1.133-.972.164-1.997-.101-2.795-.671a3.56 3.56 0 0 1-1.44-2.415c-.131-.94.116-1.975.718-2.716.62-.765 1.583-1.226 2.555-1.327a3.6 3.6 0 0 1 2.648.81c.946.791 1.218 1.776 1.333 2.95 1.007.617 2.16 1.093 3.208 1.644 1.365-1.614 2.362-2.122 4.352-2.735l.002-3.355a4.6 4.6 0 0 1-1.023-.544A3.6 3.6 0 0 1 12.4 4.042a3.64 3.64 0 0 1 .755-2.695C13.812.523 14.69.147 15.71.013M20.096 16.7a4.214 4.214 0 1 0-8.395.737 4.214 4.214 0 0 0 8.395-.738m78.638-5.24q1.029 0 2.058.028l-.004 3.625c.528-.41 1.104-.716 1.773-.816a3.4 3.4 0 0 1 2.555.648c.88.666 1.342 1.786 1.476 2.857.169 1.358-.15 2.663-.988 3.745-.556.537-1.224.912-1.993 1.038-1.129.185-2.023-.21-2.903-.866l-.004.792-1.969-.003zm3.526 4.75c-.611.204-1.036.495-1.334 1.084-.332.653-.355 1.46-.096 2.142.197.521.567.972 1.082 1.205.374.169.727.174 1.129.15.638-.241 1.068-.551 1.357-1.19a2.72 2.72 0 0 0 .011-2.145c-.22-.517-.612-.933-1.14-1.138-.33-.127-.661-.144-1.009-.107M39.8 11.438c1.208 3.72 2.752 7.338 3.93 11.069l-2.225.003c-.26-.797-.512-1.698-.91-2.434-.26-.111-.568-.074-.846-.07q-1.61.015-3.219-.012c-.337.822-.608 1.668-.875 2.515l-2.265-.002c1.183-3.714 2.593-7.38 3.87-11.064.846.018 1.695-.001 2.54-.005m-1.267 2.75c-.468 1.332-.905 2.682-1.418 3.996h1.63l1.265-.015c-.178-.502-1.211-3.759-1.477-3.98m48.168-2.727 2.128.013c-.03 2.564-.007 5.132-.007 7.697-.001 1.058.106 2.215-.012 3.26l-.117.08h-1.994l-.004-4.736c-1.594-.045-3.2-.005-4.795-.003l.001 4.74-2.14-.004.008-11.044 2.132.005.001 4.516h4.802zm3.407 3.061c.706.02 1.414.013 2.12.017-.009 1.129-.187 4.247.086 5.18.108.368.323.705.671.884.524.269 1.057.113 1.577-.07.23-.257.429-.499.543-.831.374-1.088.174-3.881.168-5.176.673.018 1.348.004 2.02 0-.015.776-.003 1.554-.004 2.33l.01 5.65q-.991.015-1.982-.014l-.061-.072a2 2 0 0 0-.018-.471c-.62.268-1.17.675-1.875.69-.817.016-1.704-.238-2.29-.825-.445-.445-.716-1.043-.855-1.65-.3-1.305-.124-4.197-.11-5.642M61.514 14.3c1.055-.082 2.154-.007 3.007.703.597.498.79 1.095.855 1.838l-1.906-.002c-.11-.204-.22-.44-.392-.6a1.46 1.46 0 0 0-1.044-.365c-.29.015-.658.13-.838.375-.109.149-.169.302-.127.487.216.978 2.702.857 3.494 1.374.503.33.89.922 1.001 1.511a2.22 2.22 0 0 1-.395 1.72c-.608.837-1.544 1.138-2.518 1.288-.902.054-1.948-.188-2.67-.737-.677-.516-.92-1.148-1.012-1.962q.964.002 1.927-.018c.038.121.08.238.14.35.28.516.838.63 1.356.783.342-.079.805-.166 1.048-.443.146-.166.197-.456.136-.669-.237-.817-2.62-.913-3.445-1.421-.49-.302-.85-.74-.98-1.307-.117-.513-.072-1.09.216-1.54.522-.814 1.24-1.148 2.147-1.364m12.831-.003c.6-.048 1.188-.045 1.774.113.675.183 1.392.56 1.734 1.2.164.307.29.858.18 1.199-.548.118-1.216.038-1.778.032-.083-.279-.153-.493-.38-.686a1.37 1.37 0 0 0-1.028-.312c-.29.03-.663.173-.825.433-.097.155-.137.314-.076.492.351 1.035 2.456.79 3.274 1.257.522.297.958.821 1.106 1.408a2.36 2.36 0 0 1-.31 1.87c-.542.809-1.404 1.113-2.313 1.29-.893.11-1.926-.08-2.672-.595-.767-.528-.997-1.19-1.169-2.056l1.912-.015c.116.293.222.52.47.723.33.27.72.393 1.146.337.33-.044.655-.196.853-.472.129-.181.193-.401.131-.621-.239-.85-2.35-.798-3.187-1.249-.566-.305-1.014-.812-1.193-1.434a1.95 1.95 0 0 1 .19-1.55c.462-.784 1.31-1.167 2.16-1.364m-23.53-1.968c.634.022 1.274.009 1.909.012a44 44 0 0 0 .03 2.15h1.884l-.004 1.642-1.794-.001c.001 1.033-.235 3.698.24 4.496.37.291 1.108.182 1.558.177l-.006 1.36c.004.14.003.212-.068.334-.25.12-.508.147-.785.15-.728.006-1.734-.126-2.258-.672-1.052-1.095-.716-4.318-.711-5.846l-1.215.002.003-1.646 1.21.009zm16.371-.008 1.874.01c-.014.718.015 1.44.029 2.157L71 14.485v1.65l-1.802-.002c.022.983-.218 3.73.227 4.473.479.286 1.078.21 1.616.208-.006.474.003.949.005 1.423l-.022.18c-.186.196-.471.188-.724.194-.77.018-1.832-.103-2.39-.687-1.042-1.09-.717-4.268-.708-5.792l-1.282.001c-.016-.546-.01-1.093-.014-1.64l1.277.007zM26.77 11.095a1.5 1.5 0 0 1 .292.008c.306.044.608.192.776.46.18.286.204.666.228.996.122 1.636.031 3.337.03 4.978 0 1.34.15 3.158-.1 4.448-.078.406-.347.6-.67.82-.122.014-.25.031-.374.024a1 1 0 0 1-.717-.35c-.177-.208-.172-.628-.188-.89-.112-1.88-.017-3.822-.015-5.709 0-1.072-.147-3.124.079-4.081.08-.343.389-.522.659-.704m21.721 3.367.27-.003c.318.357.16 1.487.15 1.955-.675-.007-1.312-.034-1.84.456-.991.919-.657 4.287-.667 5.639-.531-.006-1.566.189-1.972-.15l-.021-.334c.01-2.505-.053-5.008-.037-7.512.643.02 1.288.006 1.931.003l-.022 1.106c.12-.171.238-.355.376-.511.488-.55 1.149-.6 1.832-.649m7.317.034h2.02l.005 8.017-2.044-.003zm-31.861-.774c.331.06.625.185.818.473.298.445.306 4.8.157 5.422-.082.34-.376.505-.655.67-.319-.02-.738-.048-.951-.325-.318-.412-.291-5.04-.11-5.621.104-.337.45-.48.74-.62m32.739-2.528a1.118 1.118 0 1 1 .261 2.22 1.118 1.118 0 0 1-.26-2.22"/></svg>