<svg width="107" height="31" viewBox="0 0 107 31" fill="none" xmlns="http://www.w3.org/2000/svg">
<path d="M15.709 0.0129471C16.1291 -0.0353906 16.6159 0.0586107 17.0205 0.181892C17.9363 0.460842 18.6805 1.05861 19.1221 1.91138C19.5809 2.7855 19.6689 3.80768 19.3663 4.74732C18.982 5.90593 18.158 6.48818 17.1289 7.02369L17.1407 10.4036C17.8762 10.6278 18.592 10.8827 19.2598 11.2698C20.7947 12.1597 21.845 13.6602 22.2852 15.3674C22.7504 17.1577 22.4852 19.0599 21.5489 20.6555C20.6899 22.102 19.3203 23.1711 17.6807 23.5803C15.539 24.1154 13.7227 23.5351 11.8819 22.4407C11.0681 23.3108 10.2642 24.1911 9.47074 25.0803C9.82539 25.917 9.9422 26.7948 9.70707 27.6838C9.47714 28.5532 8.86807 29.2981 8.08891 29.7385C7.21577 30.2327 6.22095 30.323 5.26371 30.0491C4.31373 29.7772 3.51512 29.1882 3.05082 28.304C2.594 27.4346 2.55535 26.4156 2.8516 25.4876C3.18872 24.4329 3.8757 23.7831 4.84086 23.301C5.87954 22.8948 6.73808 23.0286 7.75199 23.3938C8.59635 22.5053 9.3921 21.5724 10.2452 20.6917C9.30762 18.8531 9.00393 17.2869 9.49125 15.261C8.42983 14.7655 7.40585 14.188 6.34379 13.6917C5.77638 14.2823 5.08303 14.6874 4.26859 14.8245C3.29709 14.988 2.27222 14.723 1.47367 14.1526C0.682606 13.5794 0.162036 12.7061 0.0342198 11.7376C-0.0969713 10.7983 0.150482 9.76301 0.751993 9.02174C1.37221 8.25737 2.33481 7.79646 3.30668 7.69459C4.26176 7.60156 5.21534 7.89302 5.95512 8.50416C6.90064 9.29633 7.17345 10.2808 7.28813 11.4544C8.29476 12.0715 9.44722 12.5478 10.4961 13.0989C11.8609 11.4855 12.8585 10.9767 14.8477 10.3635L14.8496 7.00904C14.4935 6.86652 14.1375 6.69321 13.8272 6.4651C13.0425 5.88463 12.5278 5.00997 12.4004 4.04224C12.2828 3.0793 12.5542 2.10838 13.1553 1.34693C13.8122 0.522945 14.6904 0.14774 15.709 0.0129471ZM20.0957 16.6995C19.8933 14.3919 17.8653 12.6807 15.5567 12.8684C13.2277 13.0581 11.4983 15.1073 11.7022 17.4348C11.9064 19.7633 13.9663 21.4806 16.293 21.262C18.5991 21.0446 20.2981 19.0068 20.0957 16.6995Z" fill="white"/>
<path d="M98.7341 11.459C99.4202 11.4599 100.106 11.4698 100.792 11.4873L100.788 15.1123C101.316 14.7014 101.892 14.3959 102.561 14.2959C103.465 14.159 104.387 14.3926 105.116 14.9443C105.996 15.6097 106.458 16.7303 106.592 17.8008C106.761 19.1585 106.442 20.4635 105.604 21.5459C105.048 22.0825 104.38 22.4579 103.611 22.584C102.482 22.7693 101.588 22.3745 100.708 21.7178L100.704 22.5097L98.7351 22.5068L98.7341 11.459ZM102.26 16.2099C101.649 16.4131 101.224 16.7039 100.926 17.2929C100.594 17.9464 100.571 18.7535 100.83 19.4346C101.027 19.9561 101.397 20.4074 101.912 20.6396C102.286 20.8088 102.639 20.8141 103.041 20.79C103.679 20.5486 104.109 20.2389 104.398 19.5996C104.7 18.932 104.695 18.1269 104.409 17.4551C104.189 16.9383 103.797 16.5219 103.269 16.3174C102.939 16.19 102.608 16.1731 102.26 16.2099Z" fill="white"/>
<path d="M39.8008 11.4383C41.0077 15.1581 42.5524 18.7763 43.7295 22.5066L41.5049 22.5096C41.2442 21.7131 40.9926 20.8122 40.5947 20.076C40.3348 19.9648 40.027 20.0021 39.749 20.0056C38.6762 20.0163 37.603 20.0123 36.5303 19.9939C36.1934 20.8159 35.922 21.6618 35.6553 22.5086L33.3896 22.5066C34.5729 18.7933 35.9835 15.1273 37.2607 11.4431C38.1057 11.4615 38.9554 11.4417 39.8008 11.4383ZM38.5332 14.1883C38.0648 15.5198 37.628 16.8696 37.1152 18.1844L38.7441 18.1834L40.0098 18.1687C39.8317 17.6672 38.7989 14.4104 38.5332 14.1883Z" fill="white"/>
<path d="M86.7012 11.4619L88.8287 11.4747C88.7997 14.0392 88.8223 16.6073 88.8216 19.1717C88.8209 20.2301 88.9285 21.387 88.8096 22.4313L88.6928 22.5113H86.6991L86.6948 17.7755C85.1011 17.7309 83.4954 17.7706 81.9003 17.7727L81.901 22.5134L79.7607 22.5092L79.7692 11.4649L81.901 11.4698L81.9024 15.9857H86.704L86.7012 11.4619Z" fill="white"/>
<path d="M90.108 14.5232C90.8138 14.5434 91.5218 14.536 92.2277 14.5399C92.2192 15.6685 92.0408 18.7865 92.3141 19.7197C92.4217 20.0878 92.6369 20.4248 92.9852 20.604C93.5092 20.873 94.0416 20.7172 94.5619 20.5346C94.7927 20.2769 94.991 20.0354 95.105 19.7027C95.4788 18.6145 95.2791 15.8215 95.2735 14.5269C95.9461 14.5449 96.6208 14.5308 97.2934 14.5273C97.2778 15.3026 97.2905 16.0806 97.2891 16.8566L97.2998 22.5078C96.6385 22.5177 95.9772 22.5127 95.3167 22.4929L95.2558 22.4214C95.2657 22.2536 95.2678 22.1169 95.2381 21.9499C94.6186 22.2182 94.0671 22.6253 93.3626 22.6395C92.5456 22.6557 91.6592 22.4023 91.0729 21.8146C90.6283 21.37 90.3572 20.7718 90.2177 20.165C89.9175 18.8595 90.0945 15.968 90.108 14.5232Z" fill="white"/>
<path d="M61.5141 14.3007C62.569 14.2181 63.6685 14.2926 64.521 15.0032C65.1185 15.5008 65.3118 16.0983 65.3762 16.841L63.4696 16.8388C63.3599 16.6349 63.2501 16.3985 63.0781 16.2392C62.8034 15.9857 62.4055 15.854 62.0338 15.8739C61.7449 15.8894 61.376 16.0048 61.1962 16.2491C61.0872 16.3978 61.027 16.5507 61.0688 16.7362C61.2854 17.7139 63.7712 17.5929 64.5627 18.1104C65.0661 18.4403 65.4527 19.0315 65.5645 19.6213C65.6764 20.2245 65.5327 20.8475 65.1688 21.341C64.5613 22.1785 63.6253 22.4794 62.6511 22.6288C61.7492 22.6833 60.7035 22.4412 59.9813 21.8918C59.3045 21.3764 59.0609 20.7441 58.9689 19.93C59.611 19.9314 60.2539 19.925 60.896 19.9123C60.9336 20.0333 60.9753 20.1501 61.0362 20.262C61.3159 20.7781 61.8745 20.8928 62.392 21.045C62.734 20.9665 63.197 20.8787 63.4399 20.6025C63.5864 20.4355 63.6374 20.1459 63.5758 19.9335C63.3386 19.1165 60.9569 19.0202 60.1307 18.5118C59.6415 18.2102 59.2818 17.7713 59.1515 17.2049C59.034 16.6916 59.0786 16.1146 59.3675 15.665C59.8886 14.8511 60.6079 14.5168 61.5141 14.3007Z" fill="white"/>
<path d="M74.3445 14.2984C74.9449 14.2498 75.5333 14.2531 76.1188 14.4114C76.7942 14.5942 77.5114 14.9715 77.8526 15.6112C78.0169 15.9178 78.1429 16.4693 78.0325 16.8098C77.4852 16.9281 76.8168 16.8481 76.2547 16.8417C76.1719 16.5634 76.1018 16.3489 75.8759 16.1563C75.5899 15.917 75.2182 15.8038 74.8472 15.8441C74.5569 15.8739 74.1838 16.0169 74.0217 16.2767C73.9247 16.4318 73.885 16.5911 73.9459 16.7695C74.2971 17.8039 76.402 17.5582 77.2204 18.0255C77.7415 18.3235 78.1776 18.8474 78.3256 19.4337C78.4849 20.0631 78.3794 20.7626 78.0162 21.3042C77.4739 22.1127 76.6122 22.4171 75.7032 22.5934C74.8104 22.7039 73.7767 22.5141 73.0305 21.9994C72.2644 21.4713 72.0343 20.8086 71.8623 19.9427L73.7739 19.9285C73.89 20.2209 73.9955 20.4489 74.2433 20.6514C74.5732 20.9219 74.9647 21.0443 75.3902 20.9877C75.7202 20.9438 76.0451 20.7923 76.2427 20.5162C76.3715 20.3349 76.4359 20.1147 76.3743 19.8946C76.135 19.0443 74.0245 19.0974 73.187 18.6464C72.6213 18.3412 72.1731 17.8343 71.994 17.212C71.8418 16.6852 71.9055 16.1365 72.1837 15.6629C72.6461 14.8784 73.4942 14.4946 74.3445 14.2984Z" fill="white"/>
<path d="M50.8139 12.3306C51.4483 12.3525 52.0876 12.339 52.7227 12.3417C52.7156 13.0583 52.7262 13.775 52.7538 14.4911L54.6371 14.4923L54.6328 16.1337L52.8395 16.133C52.8402 17.1659 52.6037 19.8308 53.0781 20.6287C53.4483 20.9204 54.1875 20.8114 54.6371 20.8064L54.6307 22.1665C54.6349 22.3067 54.6342 22.3775 54.5627 22.5C54.3121 22.6203 54.0551 22.6472 53.7783 22.6493C53.0497 22.6557 52.0437 22.524 51.5198 21.9782C50.4677 20.8829 50.804 17.6601 50.8089 16.1316L49.5938 16.1337L49.5974 14.4885L50.8075 14.4967L50.8139 12.3306Z" fill="white"/>
<path d="M67.1853 12.3216L69.0587 12.3323C69.0445 13.0501 69.0743 13.7713 69.0877 14.4891L71.0014 14.4853L70.9986 16.1344L69.1974 16.133C69.2194 17.1164 68.9787 19.8627 69.424 20.6061C69.9026 20.8921 70.5023 20.8156 71.0404 20.8142C71.034 21.2879 71.0432 21.7629 71.0453 22.2373L71.0227 22.4171C70.8372 22.6132 70.5518 22.6047 70.2991 22.6111C69.5295 22.6295 68.4668 22.5077 67.9089 21.9237C66.8674 20.8333 67.1917 17.6559 67.2009 16.1323L65.9194 16.133C65.9032 15.5871 65.9095 15.0395 65.9053 14.4936L67.1818 14.5002L67.1853 12.3216Z" fill="white"/>
<path d="M26.7696 11.0948C26.8681 11.0899 26.9636 11.0885 27.0616 11.1026C27.3678 11.147 27.6696 11.2949 27.8382 11.5637C28.0171 11.849 28.0416 12.2288 28.0661 12.5592C28.1875 14.1946 28.0974 15.8958 28.0969 17.5369C28.0966 18.8772 28.2451 20.6946 27.9962 21.9853C27.9179 22.3909 27.6489 22.5849 27.3268 22.8044C27.2041 22.8193 27.0756 22.8363 26.9519 22.8292C26.6754 22.8136 26.4135 22.6904 26.2348 22.4794C26.058 22.2706 26.0631 21.8514 26.0474 21.5895C25.9351 19.7084 26.0301 17.767 26.0318 15.8802C26.0328 14.808 25.8854 12.7556 26.1108 11.7987C26.1914 11.4564 26.5 11.277 26.7696 11.0948Z" fill="white"/>
<path d="M48.491 14.4624L48.7602 14.4593C49.0793 14.816 48.9209 15.9461 48.9107 16.4141C48.2365 16.407 47.5989 16.3801 47.0707 16.87C46.0798 17.789 46.4139 21.1569 46.404 22.5085C45.8728 22.5035 44.838 22.6975 44.4322 22.3598L44.411 22.0249C44.4207 19.52 44.3577 17.0173 44.3737 14.5128C45.0168 14.5328 45.662 14.5192 46.3054 14.5157L46.2827 15.6218C46.4021 15.4505 46.5206 15.2671 46.6591 15.1109C47.1466 14.561 47.8079 14.5112 48.491 14.4624Z" fill="white"/>
<path d="M55.8077 14.4955L57.8283 14.4963L57.8333 22.5127L55.7893 22.5099L55.8077 14.4955Z" fill="white"/>
<path d="M23.9465 13.7215C24.2782 13.7826 24.5718 13.9073 24.7651 14.1955C25.0633 14.64 25.0714 18.9954 24.922 19.617C24.8403 19.9568 24.5463 20.1225 24.2675 20.2861C23.9483 20.2669 23.5287 20.2386 23.3155 19.9618C22.9982 19.5505 23.0245 14.9215 23.2051 14.341C23.31 14.0038 23.6568 13.8612 23.9465 13.7215Z" fill="white"/>
<path d="M56.6851 11.1927C57.2855 11.1222 57.8335 11.5418 57.9213 12.1398C58.0098 12.7378 57.6062 13.2975 57.0115 13.4033C56.6101 13.4745 56.2023 13.3221 55.9467 13.0054C55.6904 12.6888 55.6274 12.258 55.781 11.8809C55.9347 11.5039 56.2809 11.2402 56.6851 11.1927Z" fill="white"/>
</svg>
