<svg xmlns="http://www.w3.org/2000/svg" width="107" height="31" fill="none" viewBox="0 0 107 31"><path fill="#764191" d="M15.709.013c.42-.048.907.046 1.311.17.916.278 1.66.875 2.102 1.728.459.874.547 1.896.244 2.836-.384 1.159-1.209 1.741-2.238 2.277l.012 3.38c.735.224 1.45.478 2.119.865 1.535.89 2.585 2.39 3.025 4.098a6.98 6.98 0 0 1-.735 5.289c-.86 1.446-2.229 2.515-3.868 2.924-2.142.535-3.96-.045-5.8-1.14q-1.221 1.305-2.411 2.64c.355.837.472 1.715.237 2.604-.23.87-.839 1.614-1.618 2.055-.873.494-1.868.583-2.825.31-.95-.272-1.749-.86-2.213-1.745-.457-.87-.496-1.888-.2-2.816.338-1.055 1.024-1.705 1.989-2.188 1.039-.406 1.898-.272 2.912.093.844-.888 1.64-1.821 2.492-2.702-.937-1.838-1.241-3.405-.754-5.43-1.061-.496-2.084-1.074-3.146-1.57-.568.59-1.262.996-2.076 1.133-.972.163-1.996-.102-2.794-.672a3.56 3.56 0 0 1-1.44-2.415c-.13-.94.117-1.974.718-2.715.62-.764 1.583-1.226 2.555-1.328a3.6 3.6 0 0 1 2.647.81c.946.792 1.22 1.776 1.334 2.95 1.007.617 2.16 1.093 3.208 1.644 1.365-1.613 2.362-2.122 4.352-2.735V7.008a4.6 4.6 0 0 1-1.02-.544 3.6 3.6 0 0 1-1.429-2.422 3.64 3.64 0 0 1 .756-2.695C13.812.523 14.69.148 15.71.013M20.095 16.7a4.213 4.213 0 1 0-8.395.737 4.213 4.213 0 0 0 8.395-.737m78.64-5.24q1.029.001 2.058.026l-.004 3.627c.528-.411 1.104-.718 1.773-.818a3.4 3.4 0 0 1 2.555.65c.88.665 1.342 1.785 1.476 2.855.17 1.358-.149 2.664-.988 3.746-.555.537-1.223.912-1.992 1.038-1.129.186-2.023-.21-2.904-.866l-.004.792-1.969-.004zm3.527 4.75c-.612.203-1.037.493-1.335 1.082-.332.654-.354 1.462-.096 2.143.198.521.567.973 1.082 1.205.374.17.727.174 1.129.15.639-.241 1.069-.55 1.357-1.19a2.72 2.72 0 0 0 .011-2.145c-.22-.516-.611-.933-1.139-1.137-.33-.128-.662-.145-1.009-.108M39.8 11.438c1.207 3.72 2.751 7.34 3.928 11.07l-2.224.002c-.26-.797-.512-1.698-.91-2.434-.26-.111-.568-.074-.846-.07q-1.61.015-3.219-.011c-.337.822-.608 1.667-.875 2.514l-2.265-.003c1.183-3.713 2.593-7.379 3.87-11.063.846.018 1.695-.001 2.54-.005m-1.269 2.75c-.468 1.332-.905 2.681-1.418 3.996h1.63l1.265-.014c-.178-.5-1.211-3.76-1.477-3.982m48.17-2.726 2.128.013c-.03 2.564-.007 5.132-.007 7.697-.001 1.058.107 2.215-.012 3.26l-.117.08h-1.994l-.004-4.736c-1.594-.045-3.2-.005-4.795-.003l.001 4.74-2.14-.004.008-11.044 2.132.005.001 4.516h4.802zm3.408 3.061c.706.02 1.414.013 2.12.017-.009 1.129-.187 4.247.086 5.18.108.368.323.705.671.884.524.269 1.057.113 1.577-.07.23-.257.429-.499.543-.831.374-1.088.174-3.881.168-5.176.673.018 1.348.004 2.02 0-.015.776-.003 1.554-.004 2.33l.01 5.65q-.991.015-1.982-.014l-.061-.072a2 2 0 0 0-.018-.471c-.62.268-1.17.675-1.875.69-.817.016-1.704-.238-2.29-.825-.445-.445-.716-1.043-.855-1.65-.3-1.305-.124-4.197-.11-5.642M61.514 14.3c1.055-.082 2.154-.007 3.007.703.597.498.79 1.095.855 1.838l-1.907-.002c-.11-.204-.219-.44-.391-.6a1.46 1.46 0 0 0-1.044-.365c-.29.015-.658.13-.838.375-.109.149-.17.302-.127.487.216.978 2.702.857 3.494 1.374.503.33.89.922 1.001 1.511a2.22 2.22 0 0 1-.395 1.72c-.608.837-1.544 1.138-2.518 1.288-.902.054-1.948-.188-2.67-.737-.677-.516-.92-1.148-1.012-1.962a87 87 0 0 0 1.927-.018c.037.121.08.238.14.35.28.516.838.63 1.356.783.342-.079.805-.166 1.048-.443.146-.166.197-.456.136-.669-.237-.817-2.62-.913-3.445-1.421-.49-.302-.85-.74-.98-1.307-.117-.513-.073-1.09.216-1.54.521-.814 1.24-1.148 2.147-1.364m12.83-.003c.6-.048 1.188-.045 1.774.113.675.183 1.392.56 1.734 1.2.164.307.29.858.18 1.199-.548.118-1.216.038-1.778.032-.083-.279-.153-.493-.38-.686a1.37 1.37 0 0 0-1.028-.312c-.29.03-.663.173-.825.433-.097.155-.137.314-.076.492.351 1.035 2.456.79 3.274 1.257.522.297.958.821 1.106 1.408a2.36 2.36 0 0 1-.31 1.87c-.542.809-1.404 1.113-2.313 1.29-.893.11-1.926-.08-2.672-.595-.767-.528-.997-1.19-1.169-2.056l1.912-.015c.116.293.222.52.47.723.33.27.72.393 1.146.337.33-.044.655-.196.853-.472.129-.181.193-.401.131-.621-.239-.85-2.35-.798-3.187-1.249-.566-.305-1.014-.812-1.193-1.434a1.95 1.95 0 0 1 .19-1.55c.462-.784 1.31-1.167 2.16-1.364M50.814 12.33c.634.022 1.274.009 1.909.012a44 44 0 0 0 .03 2.15h1.884l-.004 1.642-1.794-.001c.001 1.033-.235 3.698.24 4.496.37.291 1.108.182 1.558.177l-.006 1.36c.004.14.003.212-.068.334-.25.12-.508.147-.785.15-.728.006-1.734-.126-2.258-.672-1.052-1.095-.716-4.318-.711-5.846l-1.215.002.003-1.646 1.21.009zm16.37-.008 1.874.01c-.015.718.015 1.44.029 2.157L71 14.485l-.002 1.65-1.802-.002c.022.983-.218 3.73.227 4.473.479.286 1.078.21 1.616.208-.006.474.003.949.005 1.423l-.022.18c-.186.196-.471.188-.724.194-.77.018-1.832-.103-2.39-.687-1.041-1.09-.717-4.268-.708-5.792l-1.282.001c-.016-.546-.01-1.093-.014-1.64l1.277.007zm-40.415-1.227c.098-.005.194-.007.292.008.306.044.608.192.776.46.18.286.204.666.228.996.122 1.636.031 3.337.03 4.978 0 1.34.15 3.158-.1 4.448-.078.406-.347.6-.67.82-.122.014-.25.031-.374.024a1 1 0 0 1-.717-.35c-.177-.208-.172-.628-.188-.89-.112-1.88-.017-3.822-.015-5.709 0-1.072-.147-3.124.079-4.081.08-.343.389-.522.659-.704m21.723 3.367.27-.003c.318.357.16 1.487.15 1.955-.675-.007-1.312-.034-1.84.456-.991.919-.657 4.287-.667 5.639-.531-.006-1.566.189-1.972-.15l-.021-.334c.01-2.505-.053-5.008-.037-7.512.643.02 1.288.006 1.931.003l-.022 1.106c.12-.171.238-.355.376-.511.488-.55 1.149-.6 1.832-.649m7.316.034h2.02l.005 8.017-2.044-.003zm-31.861-.774c.331.06.625.185.818.473.298.445.306 4.8.157 5.422-.082.34-.376.505-.655.669-.319-.02-.738-.047-.951-.324-.318-.412-.291-5.04-.11-5.621.104-.337.45-.48.74-.62m32.738-2.528a1.118 1.118 0 1 1 .261 2.22 1.118 1.118 0 0 1-.26-2.22"/></svg>