<svg xmlns="http://www.w3.org/2000/svg" width="80" height="80" fill="none"><path fill="#fff" d="M43.75 7.85c.962-.104 2.075.097 3 .36 2.095.594 3.797 1.867 4.807 3.684a7.35 7.35 0 0 1 .558 6.042c-.879 2.47-2.763 3.712-5.117 4.853l.026 7.202c1.683.478 3.32 1.019 4.847 1.844 3.51 1.896 5.912 5.094 6.919 8.732 1.064 3.815.46 7.87-1.683 11.27-1.964 3.082-5.096 5.358-8.846 6.23-4.899 1.14-9.053-.095-13.263-2.427a336 336 0 0 0-5.515 5.624c.812 1.784 1.08 3.654.542 5.55-.526 1.852-1.919 3.439-3.7 4.377-1.998 1.053-4.273 1.245-6.462.661-2.172-.58-3.998-1.833-5.06-3.718-1.045-1.852-1.134-4.023-.456-6 .77-2.248 2.34-3.633 4.548-4.66 2.376-.867 4.34-.582 6.66.197 1.93-1.894 3.749-3.882 5.7-5.76-2.144-3.917-2.84-7.254-1.725-11.571-2.427-1.056-4.767-2.286-7.196-3.343-1.298 1.259-2.884 2.122-4.747 2.414-2.222.348-4.565-.217-6.39-1.432-1.81-1.221-3-3.082-3.293-5.146-.3-2.002.265-4.208 1.64-5.787 1.42-1.63 3.62-2.611 5.844-2.828 2.184-.199 4.364.422 6.055 1.724 2.163 1.688 2.788 3.786 3.05 6.287 2.302 1.315 4.94 2.33 7.338 3.504 3.121-3.438 5.401-4.522 9.95-5.829l.004-7.148c-.814-.303-1.627-.673-2.337-1.159-1.795-1.237-2.973-3.1-3.264-5.163-.27-2.052.352-4.12 1.727-5.742 1.502-1.756 3.51-2.555 5.84-2.843m10.03 35.555c-.463-4.917-5.099-8.563-10.379-8.163-5.327.404-9.283 4.77-8.816 9.73.467 4.962 5.179 8.62 10.5 8.155 5.274-.464 9.158-4.805 8.695-9.722M69.043 31.464a3.7 3.7 0 0 1 .668.017c.7.094 1.39.41 1.776.982.41.608.465 1.417.521 2.121.278 3.485.072 7.11.07 10.607 0 2.856.34 6.729-.23 9.48-.179.864-.794 1.277-1.53 1.745-.281.031-.575.068-.858.053-.632-.034-1.231-.296-1.64-.746-.404-.445-.393-1.338-.428-1.896-.257-4.009-.04-8.145-.036-12.166.002-2.285-.335-6.658.18-8.697.185-.73.89-1.112 1.507-1.5M62.589 37.063c.758.13 1.43.395 1.872 1.01.682.947.7 10.228.359 11.552-.187.724-.86 1.077-1.497 1.426-.73-.04-1.69-.101-2.177-.691-.726-.877-.666-10.74-.253-11.977.24-.719 1.033-1.023 1.696-1.32"/></svg>